<?xml version="1.0" encoding="UTF-8"?>
<svg width="25px" height="30px" viewBox="0 0 25 30" version="1.1" xmlns="http://www.w3.org/2000/svg" xmlns:xlink="http://www.w3.org/1999/xlink">
    <title>logo</title>
    <g id="Symbols" stroke="none" stroke-width="1" fill="none" fill-rule="evenodd">
        <g id="侧边栏/-聊天记录" transform="translate(-34.000000, -35.000000)">
            <g id="编组" transform="translate(11.000000, 35.000000)">
                <g id="句客宝logo" transform="translate(23.000000, 0.000000)">
                    <g id="logo" transform="translate(-0.000024, 0.240000)">
                        <path d="M20.5859996,3.59015993 C18.1965596,1.19783998 15.3623997,6.03961325e-14 12.0847198,6.03961325e-14 C8.80559983,6.03961325e-14 5.97167988,1.19783998 3.58367993,3.59015993 C1.19375998,5.98391988 -1.02140518e-12,8.82311982 -1.02140518e-12,12.1058398 C-1.02140518e-12,14.7235197 0.804719984,17.1297597 2.41679995,19.3281596 C4.02767992,21.5260796 6.19487988,23.0145595 8.91791982,23.7950395 L8.91791982,28.2199194 C19.0855196,24.7684795 24.1696795,19.3989596 24.1696795,12.1058398 C24.1696795,8.82311982 22.9744795,5.98391988 20.5859996,3.59015993" id="Fill-1" fill="#FC790D"></path>
                        <path d="M14.6474157,14.9594397 C14.6474157,14.9594397 14.6630157,14.9445597 14.6898957,14.9183997 C15.8435757,14.2029597 16.6139757,13.0202397 16.6475757,11.6608798 C16.7034957,9.40199981 14.7102957,7.51991985 12.1950958,7.45727985 C9.68037581,7.39511985 7.59669585,9.17591982 7.54077585,11.4352798 C7.48509585,13.6943997 9.47829581,15.5757597 11.9932558,15.6383997 C12.0942958,15.6415197 12.1931758,15.6352797 12.2922958,15.6326397 C12.2922958,15.6331197 12.7206957,15.9362397 13.1906157,16.1781597 C13.7145357,16.4471997 14.3582157,16.6279197 14.7323757,16.5957597 C15.2274957,16.5532797 15.3054957,16.2347997 15.2063757,16.0718397 C15.1122957,15.9165597 14.9478957,15.9095997 14.7890157,15.8097597 C14.5982157,15.6892797 14.5137357,15.6283197 14.4352557,15.4413597 C14.3452557,15.2260797 14.4494157,15.0662397 14.6474157,14.9594397" id="Fill-3" fill="#FFFFFF"></path>
                    </g>
                </g>
            </g>
        </g>
    </g>
</svg>